<?xml version="1.0" encoding="utf-8"?>
<svg viewBox="163.1518 217.5878 149.999 38.0393" xmlns="http://www.w3.org/2000/svg">
  <defs>
    <clipPath id="clip0_1004_677">
      <rect width="150" height="38.0443" fill="white" transform="translate(55 59.9778)"/>
    </clipPath>
  </defs>
  <g clip-path="url(#clip0_1004_677)" transform="matrix(1, 0, 0, 1, 108.15184783935547, 157.60499572753906)">
    <path fill-rule="evenodd" clip-rule="evenodd" d="M60.2216 98.0078H77.4861L59.2201 93.1087C58.2753 92.8545 57.4024 92.3846 56.6701 91.7358C55.9378 91.087 55.3661 90.2771 55 89.3699V92.7824C55.004 94.1708 55.5573 95.5012 56.5391 96.483C57.5208 97.4647 58.8512 98.0181 60.2396 98.0221L60.2216 98.0078ZM60.1968 64.9863C58.8173 64.9983 57.4982 65.5536 56.5253 66.5318C55.5525 67.51 55.0045 68.8322 55 70.2117V84.3832L60.1968 64.9863Z" fill="white"/>
    <path fill-rule="evenodd" clip-rule="evenodd" d="M89.1144 88.8886L93.5323 72.406C93.8869 71.0655 93.6975 69.6391 93.0052 68.4377C92.3129 67.2363 91.1739 66.3571 89.8363 65.9917L86.5074 65.0996C87.3163 65.6847 87.9753 66.4529 88.4305 67.3414C88.8857 68.2299 89.1243 69.2134 89.1268 70.2118V88.8744L89.1144 88.8886ZM81.9611 63.8964L68.0274 60.1576C66.6869 59.803 65.2606 59.9924 64.0592 60.6847C62.8577 61.377 61.9785 62.516 61.6131 63.8536L61.5989 63.8821H81.9469L81.9611 63.8964Z" fill="white"/>
    <path d="M142.823 92.9384C147.085 92.9384 149.619 91.6069 151.885 89.1863L150.086 87.2603C149.814 87.0014 149.504 86.7864 149.166 86.6231C148.902 86.5195 148.615 86.4898 148.335 86.5373C148.056 86.5847 147.795 86.7074 147.58 86.8922C147.453 86.9874 147.325 87.0768 147.2 87.1614C145.969 88.0387 144.489 88.4956 142.978 88.4644C139.183 88.4644 136.563 85.3068 136.563 81.5118C136.563 77.6599 139.254 74.5592 142.978 74.5592C144.374 74.5191 145.751 74.8985 146.93 75.6483C147.17 75.8042 147.397 75.9602 147.637 76.1438C147.821 76.2567 148.03 76.3234 148.245 76.3381C148.46 76.3529 148.676 76.3152 148.874 76.2284C149.838 75.6227 150.682 74.8451 151.366 73.9344L151.408 73.8773L151.451 73.8202L151.494 73.7632L151.537 73.7061L151.58 73.649C150.495 72.467 149.167 71.5338 147.687 70.9135C146.207 70.2933 144.611 70.0006 143.007 70.0558C127.672 70.0558 127.842 92.9242 142.823 92.9242V92.9384ZM163.865 92.9384C166.116 92.8836 168.301 92.1659 170.147 90.8752C171.992 89.5844 173.415 87.778 174.239 85.6821C175.063 83.5862 175.25 81.2939 174.777 79.0922C174.304 76.8905 173.192 74.8773 171.58 73.3045C169.968 71.7318 167.928 70.6694 165.716 70.2504C163.503 69.8315 161.216 70.0745 159.141 70.9491C157.066 71.8237 155.295 73.291 154.05 75.1674C152.804 77.0437 152.14 79.2456 152.141 81.4976C152.14 83.0243 152.444 84.5358 153.037 85.9429C153.629 87.35 154.497 88.6243 155.59 89.6905C156.683 90.7568 157.978 91.5935 159.399 92.1513C160.82 92.7092 162.339 92.9768 163.865 92.9384ZM163.922 88.4492C163.021 88.4473 162.13 88.2643 161.302 87.911C160.473 87.5577 159.724 87.0414 159.099 86.3927C158.474 85.7441 157.986 84.9763 157.664 84.1352C157.342 83.2941 157.193 82.3968 157.224 81.4966C157.182 80.5985 157.322 79.701 157.636 78.8586C157.951 78.0163 158.434 77.2467 159.055 76.5965C159.676 75.9463 160.422 75.4291 161.25 75.0763C162.077 74.7234 162.967 74.5424 163.866 74.544C164.766 74.5464 165.657 74.7298 166.485 75.0834C167.313 75.437 168.062 75.9535 168.687 76.6022C169.311 77.2509 169.799 78.0186 170.121 78.8596C170.442 79.7006 170.592 80.5977 170.56 81.4976C170.603 82.3954 170.463 83.2926 170.148 84.1347C169.834 84.9768 169.352 85.7462 168.731 86.3963C168.11 87.0465 167.364 87.5638 166.537 87.9168C165.711 88.2699 164.821 88.4504 163.922 88.4492ZM191.124 84.1588C191.322 84.5982 191.52 85.0509 191.704 85.5179C191.888 85.0366 192.084 84.583 192.284 84.1302C192.484 83.6775 192.695 83.2524 192.921 82.8272L198.998 70.8775C199.083 70.7022 199.192 70.5401 199.323 70.3963C199.431 70.2863 199.561 70.1995 199.704 70.1414C199.857 70.0823 200.021 70.0535 200.185 70.0567H204.999V92.9242H200.171V80.0842C200.171 79.4185 200.199 78.7108 200.266 77.9461L194.007 90.0956C193.832 90.4547 193.556 90.7549 193.213 90.9592C192.871 91.1615 192.478 91.2646 192.081 91.2569H191.33C190.932 91.2625 190.541 91.1595 190.197 90.9592C189.858 90.7509 189.583 90.4517 189.404 90.0956L183.109 77.9309C183.152 78.3114 183.179 78.6813 183.204 79.0637C183.229 79.446 183.232 79.7856 183.232 80.0975V92.9375H178.404V70.07H183.218C183.383 70.0668 183.546 70.0956 183.699 70.1547C183.842 70.2128 183.972 70.2996 184.08 70.4096C184.215 70.5498 184.326 70.7127 184.405 70.8908L190.492 82.8986C190.704 83.3094 190.917 83.7336 191.115 84.1873L191.124 84.1588ZM111.061 92.9384H105.723V70.07H111.061V92.9384ZM131.481 70.07V74.2758H125.051V92.9384H119.741V74.2758H113.313V70.07H131.495H131.481Z" fill="white"/>
    <path fill-rule="evenodd" clip-rule="evenodd" d="M82.7831 98.0078C83.3975 98.0106 84.0072 97.9004 84.5817 97.6825C85.3556 97.3885 86.0524 96.9221 86.6191 96.3186C87.1859 95.7151 87.6077 94.9904 87.8525 94.1996C87.9734 93.7377 88.026 93.2605 88.0085 92.7834V70.226C88.0045 68.8377 87.4513 67.5075 86.4698 66.5258C85.4882 65.544 84.1581 64.9906 82.7698 64.9863H61.3157L55.7793 85.6463C55.4247 86.9868 55.6141 88.4131 56.3064 89.6145C56.9987 90.816 58.1377 91.6951 59.4753 92.0605L81.268 97.8946C81.7608 98.0032 82.2664 98.0413 82.7698 98.0078H82.7831Z" fill="white"/>
  </g>
</svg>