<svg width="127" height="32" viewBox="0 0 127 32" fill="none" xmlns="http://www.w3.org/2000/svg">
<path d="M2.05042 8.58627V11.7901H7.3047V25.5025H10.893V11.7901H16.6599V8.58627H2.05042Z" fill="white"/>
<path d="M19.223 25.5025H31.5257V22.2987H22.6832V18.1978H28.9627V14.9939H22.6832V11.7901H31.5257V8.58627H19.223V25.5025Z" fill="white"/>
<path d="M43.9566 14.9939H37.677V8.71442H34.0887V25.5025H37.677V18.1978H43.9566V25.5025H47.4167V8.71442H43.9566V14.9939Z" fill="white"/>
<path d="M61.001 16.4036C62.4107 15.5066 62.5389 14.0969 62.5389 12.6872C62.5389 9.48335 60.4884 8.20181 55.8749 8.20181C53.8245 8.20181 51.774 8.58627 50.7488 8.84258L50.108 8.97073L50.8769 12.1746L51.5177 12.0464C52.4148 11.7901 54.2089 11.5338 55.6186 11.5338C58.9506 11.5338 58.9506 12.1746 58.9506 13.1998C58.9506 14.3532 58.8224 15.1221 56.3875 15.1221H53.44V18.1978H56.3875C58.9506 18.1978 59.3351 18.8385 59.3351 20.5045C59.3351 21.7861 59.0788 22.6831 55.6186 22.6831C54.3371 22.6831 52.4148 22.555 51.3895 22.1705L50.7488 21.9142L49.9799 24.9899L50.6206 25.1181C51.9022 25.3744 54.2089 25.7588 56.0031 25.7588C59.4632 25.7588 63.0515 25.1181 63.0515 20.5045C63.0515 19.0949 62.7952 17.3007 61.001 16.4036Z" fill="white"/>
<path d="M73.5601 8.20181C67.9214 8.20181 65.6146 10.6367 65.6146 16.9162C65.6146 23.3239 67.7932 25.7588 73.5601 25.7588C79.1989 25.7588 81.5056 23.3239 81.5056 16.9162C81.3775 10.6367 79.1989 8.20181 73.5601 8.20181ZM73.5601 22.555C70.3563 22.555 69.3311 21.7861 69.3311 17.0444C69.3311 11.9183 70.3563 11.5338 73.5601 11.5338C76.764 11.5338 77.7892 11.9183 77.7892 17.0444C77.7892 21.7861 76.764 22.555 73.5601 22.555Z" fill="white"/>
<path d="M92.2704 8.58627H84.0686V25.5025H87.5288V19.9919H92.2704C95.3461 19.9919 97.1403 17.8133 97.1403 14.4813C97.2684 9.6115 94.449 8.58627 92.2704 8.58627ZM87.5288 11.7901H91.886C92.9112 11.7901 93.552 12.6872 93.552 14.4813C93.552 16.1473 92.9112 16.9162 91.886 16.9162H87.6569V11.7901H87.5288Z" fill="white"/>
<path d="M122.387 6.53583H102.779L99.8315 11.662H105.727H119.439L112.519 23.4521L115.466 28.5782L125.206 11.662L122.387 6.53583Z" fill="white"/>
<path d="M110.468 19.7356L105.983 22.2987L109.699 28.5782H115.466L112.519 23.4521L110.468 19.7356Z" fill="#888"/>
<path d="M107.905 15.3784L102.779 6.53583L99.8315 11.662L103.548 17.9415L107.905 15.3784Z" fill="#888"/>
</svg>
